<?xml version="1.0" encoding="utf-8"?>
<!-- Generator: Adobe Illustrator 24.3.0, SVG Export Plug-In . SVG Version: 6.00 Build 0)  -->
<svg version="1.1" id="Layer_1" xmlns="http://www.w3.org/2000/svg" xmlns:xlink="http://www.w3.org/1999/xlink" x="0px" y="0px"
	 viewBox="0 0 1389.9 660.8" style="enable-background:new 0 0 1389.9 660.8;" xml:space="preserve">
<style type="text/css">
	.st0{fill:#FCDA64;}
	.st1{fill:#474642;}
</style>
<path class="st0" d="M98.2,323.3c0,45.6,36.9,82.5,82.5,82.5s82.5-36.9,82.5-82.5s-36.9-82.5-82.5-82.5c0,0,0,0,0,0H98.2V323.3z"/>
<path class="st1" d="M180.7,166.5H66.8L24,97.9v225.3C24,409.8,94.2,480,180.7,480s156.8-70.2,156.8-156.8S267.3,166.5,180.7,166.5z
	 M180.7,437.2c-62.9-0.1-113.8-51-113.9-113.9V209.4h113.9c62.9-0.6,114.4,49.8,115.1,112.7c0.6,62.9-49.8,114.4-112.7,115.1
	C182.3,437.2,181.5,437.2,180.7,437.2z"/>
<path class="st0" d="M537.5,401.3H400.1c1.1,14.4,6.4,25.9,16,34.6c9.6,8.7,21.3,13,35.2,13.1c20,0,34.2-8.4,42.4-25.1h40.1
	c-5.3,16.3-15.6,30.5-29.5,40.6c-14.3,10.6-31.9,15.9-53,15.9c-17.2,0-32.6-3.9-46.2-11.6c-13.5-7.6-24.6-19-32-32.6
	c-7.7-14-11.6-30.3-11.6-48.8c0-18.5,3.8-34.8,11.3-48.8c7.2-13.7,18.2-25,31.7-32.5c13.6-7.6,29.2-11.4,46.8-11.4
	c17,0,32.1,3.7,45.4,11.1c13.1,7.2,23.8,18,31,31.2c7.4,13.4,11.1,28.8,11.1,46.2C538.9,389.2,538.4,395.3,537.5,401.3z M500,371.3
	c-0.2-13.7-5.1-24.7-14.7-32.9c-9.6-8.3-21.4-12.4-35.6-12.4c-12.8,0-23.8,4.1-32.9,12.2c-9.1,8.2-14.6,19.2-16.3,33.1L500,371.3z"
	/>
<path class="st0" d="M738.8,401.3H601.4c1.1,14.4,6.4,25.9,16,34.6c9.6,8.7,21.3,13,35.2,13.1c20,0,34.1-8.4,42.4-25.1h40.1
	c-5.3,16.3-15.6,30.5-29.5,40.6c-14.2,10.6-31.9,15.9-53,15.9c-17.2,0-32.6-3.9-46.2-11.6c-13.5-7.6-24.6-19-32-32.6
	c-7.7-14-11.6-30.3-11.6-48.8c0-18.5,3.8-34.8,11.3-48.8c7.2-13.7,18.1-25,31.6-32.5c13.6-7.6,29.2-11.4,46.8-11.4
	c17,0,32.1,3.7,45.4,11.1c13.1,7.2,23.8,18,31,31.2c7.4,13.4,11.1,28.8,11.1,46.2C740.2,389.2,739.7,395.3,738.8,401.3z
	 M701.3,371.3c-0.2-13.7-5.1-24.7-14.7-32.9c-9.6-8.3-21.4-12.4-35.6-12.4c-12.8,0-23.8,4.1-33,12.2c-9.1,8.2-14.6,19.2-16.3,33.1
	L701.3,371.3z"/>
<path class="st1" d="M775.5,338.7c14.3-27.4,42.7-44.4,73.6-44c14.1,0,26.5,2.8,37,8.3c9.8,5,18.5,12,25.3,20.7v-26.1h37.5v179.8
	h-37.5v-26.8c-6.3,8.5-14.9,15.5-25.8,21.2c-10.9,5.7-23.3,8.5-37.2,8.5c-15,0.1-29.7-4-42.4-11.9c-13-8.1-23.5-19.6-30.5-33.3
	c-7.5-14.2-11.2-30.4-11.2-48.4S768,352.6,775.5,338.7z M903.7,355c-4.7-8.7-11.6-15.9-20.1-20.9c-8.1-4.8-17.4-7.2-26.8-7.2
	c-19.5-0.2-37.5,10.4-46.8,27.6c-5.1,9-7.7,19.7-7.7,32.1s2.6,23.3,7.7,32.6c4.6,8.9,11.6,16.3,20.2,21.4c8,4.8,17.2,7.3,26.6,7.4
	c9.4,0,18.6-2.5,26.8-7.2c8.5-5,15.4-12.3,20.1-21c5.1-9.3,7.7-20.1,7.7-32.5C911.4,374.8,908.8,364.1,903.7,355z"/>
<path class="st1" d="M1036,303.1c11.4-5.8,24.1-8.7,36.9-8.4c15.1-0.2,29.9,3.9,42.9,11.6c13,7.8,23.6,19,30.5,32.5
	c7.4,13.9,11.1,29.9,11.1,48s-3.7,34.2-11.1,48.4c-6.9,13.7-17.5,25.2-30.5,33.3c-12.9,7.9-27.8,12.1-42.9,11.9
	c-13.7,0-25.9-2.8-36.5-8.3c-10-5-18.9-12.1-26.1-20.7v111.5h-37.2V297.6h37.2V324C1016.6,315.7,1025.2,308.8,1036,303.1z
	 M1111.9,354.5c-4.7-8.6-11.7-15.7-20.2-20.5c-8.2-4.6-17.5-7.1-26.9-7c-9.3,0-18.5,2.5-26.6,7.2c-8.5,5-15.5,12.2-20.2,20.9
	c-5.1,9.1-7.7,19.9-7.7,32.3c0,12.4,2.6,23.2,7.7,32.5c9.2,17.3,27.2,28.2,46.8,28.2c9.5,0,18.8-2.5,26.9-7.4
	c8.6-5.1,15.6-12.5,20.2-21.4c5.1-9.3,7.7-20.2,7.7-32.6C1119.6,374.3,1117,363.6,1111.9,354.5L1111.9,354.5z"/>
<path class="st1" d="M1244.5,303.1c11.4-5.8,24.1-8.7,36.9-8.4c30.8-0.4,59.2,16.7,73.4,44c7.4,13.9,11.1,29.9,11.1,48
	c0,18.1-3.7,34.2-11.1,48.4c-6.9,13.7-17.5,25.2-30.5,33.3c-12.9,7.9-27.8,12.1-42.9,11.9c-13.7,0-25.9-2.8-36.5-8.3
	c-10-5-18.9-12.1-26.1-20.7v111.5h-37.2V297.6h37.2V324C1225,315.7,1233.6,308.8,1244.5,303.1z M1320.4,354.5
	c-4.7-8.6-11.7-15.7-20.3-20.5c-8.2-4.6-17.5-7.1-26.9-7c-9.3,0-18.5,2.5-26.6,7.2c-8.5,5-15.5,12.2-20.2,20.9
	c-5.1,9.1-7.7,19.9-7.7,32.3c0,12.4,2.6,23.2,7.7,32.5c9.2,17.3,27.2,28.2,46.8,28.2c9.5,0,18.8-2.6,26.9-7.4
	c8.6-5.1,15.6-12.5,20.2-21.4c5.1-9.3,7.7-20.2,7.7-32.6S1325.5,363.5,1320.4,354.5L1320.4,354.5z"/>
</svg>
